<?xml version="1.0" encoding="iso-8859-1"?>
<!-- Generator: Adobe Illustrator 19.0.0, SVG Export Plug-In . SVG Version: 6.00 Build 0)  -->
<svg version="1.1" id="Layer_1" xmlns="http://www.w3.org/2000/svg" xmlns:xlink="http://www.w3.org/1999/xlink" x="0px" y="0px"
	 viewBox="0 0 512.001 512.001" style="enable-background:new 0 0 512.001 512.001;" xml:space="preserve">
<path style="fill:#23B898;" d="M354.808,44.087c-1.502,0.512-30.233,10.377-58.891,25.573c-9.629-30.967-23.06-58.205-23.766-59.626
	c-6.626-13.349-25.734-13.366-32.369,0c-0.706,1.423-14.138,28.661-23.766,59.626c-28.657-15.196-57.388-25.061-58.89-25.573
	c-14.105-4.8-27.675,8.643-22.97,22.801c0.241,0.726,6.012,18.008,15.504,39.136c13.135,29.236,27.798,54.959,49.773,73.534
	c5.489,4.64,13.202,5.581,19.639,2.414c23.583-11.599,49.73-11.834,73.792,0.001c2.532,1.246,5.259,1.855,7.971,1.855
	c7.832,0,12.33-4.193,21.274-13.208c13.518-13.625,27.032-35.358,40.167-64.595c9.492-21.129,15.263-38.411,15.504-39.136
	C382.475,52.748,368.929,39.281,354.808,44.087z"/>
<path style="fill:#1DA49C;" d="M354.808,44.087c-1.502,0.512-30.233,10.377-58.891,25.573c-9.629-30.967-23.06-58.205-23.766-59.626
	C269.101,3.891,262.832,0,255.966,0v173.199c13.036,0,25.444,3.142,36.897,8.774c2.532,1.246,5.259,1.855,7.971,1.855
	c7.832,0,12.33-4.193,21.274-13.208c13.518-13.625,27.032-35.358,40.167-64.595c9.492-21.129,15.263-38.411,15.504-39.136
	C382.475,52.748,368.929,39.281,354.808,44.087z"/>
<path style="fill:#FFDA79;" d="M393.185,258.923c-11.216-38.674-32.467-71.958-59.839-93.733c-0.01-0.007-0.017-0.016-0.026-0.023
	c-47.319-37.7-107.893-37.287-154.689-0.014c0,0-0.001,0.001-0.002,0.002c-0.001,0.001-0.002,0.002-0.004,0.004
	c-0.004,0.004-0.008,0.006-0.012,0.01c-0.002,0.002-0.005,0.004-0.007,0.006c-61.693,49.057-83.102,145.055-59.86,225.019
	c11.223,38.693,32.49,71.994,59.873,93.761c23.495,18.7,50.419,28.047,77.349,28.047c26.923,0,53.85-9.349,77.335-28.04
	c27.393-21.774,48.66-55.075,59.881-93.768C405.483,347.876,405.481,301.257,393.185,258.923z"/>
<g>
	<path style="fill:#FFC72D;" d="M393.185,258.923c-11.216-38.674-32.467-71.958-59.839-93.733c-0.01-0.007-0.017-0.016-0.026-0.023
		c-24.101-19.202-50.93-28.099-77.355-28.101V512c0,0,0.001,0,0.002,0c26.923,0,53.85-9.349,77.335-28.04
		c27.393-21.774,48.66-55.075,59.881-93.768C405.483,347.876,405.481,301.257,393.185,258.923z"/>
	<path style="fill:#FFC72D;" d="M308.652,481.928l-185.961-205.86c-4.197-4.645-5.69-11.133-3.946-17.145
		c11.223-38.693,32.49-71.994,59.882-93.768c7.466-5.935,18.258-5.045,24.65,2.032l185.961,205.86
		c4.197,4.645,5.689,11.133,3.945,17.145c-11.222,38.693-32.488,71.994-59.881,93.768
		C325.839,489.895,315.046,489.005,308.652,481.928z"/>
</g>
<g>
	<path style="fill:#F5BC20;" d="M389.24,373.048L255.966,225.511v198.092l52.688,58.325c6.395,7.078,17.187,7.966,24.65,2.032
		c27.393-21.774,48.66-55.075,59.881-93.768C394.929,384.179,393.436,377.692,389.24,373.048z"/>
	<path style="fill:#F5BC20;" d="M178.628,483.96c-27.393-21.774-48.66-55.074-59.882-93.768c-1.744-6.013-0.251-12.5,3.946-17.145
		c114.878-127.163,35.777-39.61,185.961-205.86c6.393-7.077,17.184-7.967,24.65-2.032c27.393,21.774,48.66,55.075,59.881,93.768
		c1.744,6.013,0.251,12.5-3.946,17.145l-185.959,205.86C196.888,489.003,186.098,489.896,178.628,483.96z"/>
</g>
<path style="fill:#E3AE1E;" d="M393.185,258.923c-11.222-38.693-32.488-71.994-59.881-93.768c-7.467-5.935-18.259-5.045-24.65,2.032
	c-22.227,24.606-39.317,43.523-52.688,58.324v198.092l133.273-147.535C393.436,271.423,394.929,264.935,393.185,258.923z"/>
<g>
</g>
<g>
</g>
<g>
</g>
<g>
</g>
<g>
</g>
<g>
</g>
<g>
</g>
<g>
</g>
<g>
</g>
<g>
</g>
<g>
</g>
<g>
</g>
<g>
</g>
<g>
</g>
<g>
</g>
</svg>
